<svg xmlns="http://www.w3.org/2000/svg" viewBox="0 0 737.91 301.6"><defs><style>.cls-1{fill:#037c95;}</style></defs><title>Asset 1</title><g id="Layer_2" data-name="Layer 2"><g id="Layer_1-2" data-name="Layer 1"><path class="cls-1" d="M62.7,100.35c-.64,8.2-2,16.09-6.55,22.92-6.56,9.91-15.77,15.15-27.95,13.92-12.42-1.27-21.06-7.87-25.27-19.55-4.68-13-3.86-25.87,3.19-37.84,6.6-11.22,19.37-18.28,34.55-14C50.94,68.74,57,76.38,60,86.23,61.45,90.77,61.84,95.64,62.7,100.35ZM20.41,98.88c0,5.65,1,9.72,3,12.57,4.05,5.8,11.66,5.86,15.35-.17,4.6-7.53,4.57-15.51.44-23.16-3.58-6.61-11.08-6.75-15.42-.62A19.08,19.08,0,0,0,20.41,98.88Z"/><path class="cls-1" d="M607,234.26l-8.64,16.58a62.35,62.35,0,0,0-6.83-3.05c-5.35-1.67-9.77.16-13.33,4.23-6.59,7.55-5.85,18.73-1.54,26.19,1.47,2.55,2.68,3.26,6.6,4.41.68-3,1.35-6,2.07-9.24l-6.05-.64c.57-4.29,1.11-8.38,1.69-12.8,10.27-2.35,20.61-2.8,31.42-4.41-.42,5.62-.81,10.81-1.22,16.24l-8,1.53L600,298.89c-3.27,2.47-7.23,2.43-11.09,2.65-16.11.94-26-9.39-30-19a40.23,40.23,0,0,1-3.12-16.7c.28-9.9,3.16-18.87,9.77-26.51C575.8,227.52,594.63,225.54,607,234.26Z"/><path class="cls-1" d="M311.86,5.51C322.93,1,333.94-.94,345.41.44a30.82,30.82,0,0,1,15.31,6.11c11.76,9,10.13,25.69,1.59,34.93a32.9,32.9,0,0,1-16.44,9.84c-1.58.39-3.16.84-5.16,1.37.39,6.58.78,13.11,1.2,20.31l-19.36-1.09c.33-17.89.66-35.43,1-53.08-4.06-.79-6.71,1.86-10.33,2.5C312.75,16.1,312.32,11,311.86,5.51Zm28.42,10.82a62.25,62.25,0,0,0,.66,15c5,.28,8.9-1.89,10.59-5.66,1.62-3.59.46-7-3.14-8.64A10.13,10.13,0,0,0,340.28,16.33Z"/><path class="cls-1" d="M532.59,216.15,508,222.56c-1.06-4.12-2.1-8-3-11.91-.74-3.06-1.34-6.16-2-9.23a10,10,0,0,0-4.87-6.73c-9.19-5.44-18.31-11-27.46-16.5L468,176.61l16.18-13.88,21.53,17.36c2.72-9.42,3.87-18.31,5.9-27.53l18.72,2.92c-2.34,7.89-4.56,15.21-6.67,22.55-1.16,4.05-2.06,8.18-3.23,12.22a7.33,7.33,0,0,0,.86,6.39c3,4.86,5.81,9.86,8.68,14.81C530.8,212.85,531.56,214.28,532.59,216.15Z"/><path class="cls-1" d="M71.21,52.46C75,60.88,78.53,68.66,82,76.35c3.06-1.77,5.74-3.76,8.75-5,7.17-2.9,13.85-.69,18.08,5.85a33.24,33.24,0,0,1,3.23,6.91,68.57,68.57,0,0,1,3.78,23L102.31,110a76.56,76.56,0,0,0-1.67-9.1,49.21,49.21,0,0,0-4-9.48c-1.28-2.3-3.25-2.66-5-1.74a4.53,4.53,0,0,0-2,5.76c2.4,5.66,4.94,11.26,7.56,17.19L82.91,124c-7.26-20.7-14.38-41-21.74-62Z"/><path class="cls-1" d="M660.69,269.4c-.69,6.22-5.32,15.76-15.59,21.79A19.82,19.82,0,0,1,629,293c-6-1.76-9.63-5.77-11.31-11.72-3.73-13.17,4.72-29.83,17.48-35.59C647.58,240.06,661.88,247.85,660.69,269.4Zm-28,.65c0,4.28.53,5.38,2.6,6.27,2.58,1.1,4.38-.32,6-1.91a15.55,15.55,0,0,0,4.95-11.72c0-2.06-.54-3.95-2.75-4.7a5,5,0,0,0-5.44,1.24C635.07,262.41,632.31,265.8,632.73,270.05Z"/><path class="cls-1" d="M223.13,81.54l-14.82,5.2C206.52,67.25,204.75,48,203,28.53l12.22-5.12c1.34,7.91,2.62,15.5,3.94,23.25a45.45,45.45,0,0,1,6.31-1.79c6.62-.86,12.49,2.67,15.21,8.89,2.51,5.74,4.6,17.62,4.32,25L229.3,84.53c0-4.7.3-8.93-.1-13.1a45.54,45.54,0,0,0-2.36-9.05,3.38,3.38,0,0,0-4.37-2.23c-2.08.53-2.45,2.07-2,4.23C221.48,70,222.22,75.63,223.13,81.54Z"/><path class="cls-1" d="M506,90.83l-23.66-2.77c2.21,4.41,5.94,5.58,15.56,5A145.79,145.79,0,0,1,489.23,109c-6.49-.28-12.52-1.77-17.48-6.12C465,97,463.88,89.5,465.92,81.09c2.94-12.09,14.49-21.32,26.66-20.86,5.24.2,10,1.73,13.64,5.89,4.27,4.84,4.22,10.47,3,16.17C508.66,85.18,507.16,87.87,506,90.83ZM494,78.06c-2.43-4.83-4.34-4.9-8-.66Z"/><path class="cls-1" d="M698.28,267.4l-15.07-.85c9.5-22.82,18.89-45.37,28.36-68.1l26.34,1.33Z"/><path class="cls-1" d="M497.21,109.43l13.25-8.14a33,33,0,0,0,2.39,4.11,24,24,0,0,0,4.33,4.49,3.48,3.48,0,0,0,5.27-4.33c-.83-1.76-1.85-3.42-2.84-5.09s-2.23-3.23-3.05-5c-4.06-8.65-1-16.6,7.89-20.25,8.48-3.48,20.24.55,25.22,8a19.71,19.71,0,0,1,1,2.09c-3.72,3.08-7.46,6.16-11.1,9.16-1.6-1.08-2.63-2.07-3.86-2.5a4.22,4.22,0,0,0-3.19.2c-.52.32-.68,1.94-.38,2.73a45.1,45.1,0,0,0,2.56,4.73c1.2,2.25,2.74,4.41,3.46,6.81,2.9,9.59-2.81,16.5-10.56,19.07-6.69,2.22-13.08.56-18.91-3.13A30.74,30.74,0,0,1,497.21,109.43Z"/><path class="cls-1" d="M568,182.16a28.62,28.62,0,0,1-7.75,21.07c-6.13,6.65-16.68,8-23.75,2.5a18.43,18.43,0,0,1-5.42-8.06c-3.43-9.44,0-24.87,8.3-31.86,5.32-4.46,11.23-5.77,17.7-3.58s9.22,7.4,10.43,13.63A52.63,52.63,0,0,1,568,182.16ZM543.7,185.7a30.33,30.33,0,0,0,1.2,3.82c1.34,2.77,3.45,3.24,5.73,1.12,3-2.82,4-6.49,3.5-10.52-.23-1.84-1-3.53-3.1-3.92a4,4,0,0,0-4.43,2.35C545.42,180.92,544.59,183.46,543.7,185.7Z"/><path class="cls-1" d="M408.19,88c-.12-1.82-.21-3.13-.32-4.65-5.33.84-10.29.69-14.89-2.12a13.19,13.19,0,0,1-1.29-21.76,17.66,17.66,0,0,1,9.7-3.27c1.77-.14,3.56-.18,5.35-.26-.81-5.58-3.77-6.06-12-1.94-.58-3.61-1.13-7.1-1.7-10.64,5.67-4.13,11.55-5.73,18.13-4.33,5.28,1.12,9.12,4.18,10.58,9.37a48,48,0,0,1,2,12.4,80.53,80.53,0,0,1-4.36,25.78Zm-2.33-16.9c1.74.09,3-.4,3.11-2.37s-1-2.94-3-2.93-4.18,1.45-3.79,2.87A3.2,3.2,0,0,0,405.86,71.07Z"/><path class="cls-1" d="M288.85,57.69l-21.77,2.07c3.33,3.28,5.4,3.5,12.52,1.55-.42,4.41-.75,8.63-1.3,12.83-.09.66-1.09,1.45-1.84,1.73-8.56,3.26-21.69-2.33-25.35-10.73-4.53-10.39-.44-23.09,9.09-27.72,12.65-6.15,23.68-.07,26.88,11.41C287.84,51.53,288.2,54.34,288.85,57.69Zm-21.73-8.64L273,47.92l.13-1.24c-1.23-.47-2.49-1.39-3.67-1.29C268.11,45.51,266.49,46.23,267.12,49.05Z"/><path class="cls-1" d="M470,61.54,460.12,72.8c-3.35-3.56-6.82-6.52-11.62-2.84-2.88,2.21-4.1,6.68-2.78,9.75,1.64,3.78,5.19,4.82,12.82,3.51-1.23,4.46-2.31,8.73-3.66,12.91a4,4,0,0,1-2.47,2.19,21.13,21.13,0,0,1-18-3.55,13.65,13.65,0,0,1-5.4-8.62c-2.6-13.69,3.33-25.71,14.33-31.33C452.6,50.12,464,52.35,470,61.54Z"/><path class="cls-1" d="M190.7,84.32l-11.4,5c-2.14-8.09-4.18-15.84-6.31-23.88l-8.55,1.42c-.77-3.79-1.52-7.53-2.3-11.4l8.7-3.56c-1-4-1.92-8-3-12.69l16-2.86c.66,3.55,1.27,6.87,1.93,10.42,4.35.36,7.6-2.91,11.84-3.18.63,4.71,1.25,9.29,1.93,14.38l-12.31,4.21C188.43,69.93,189.55,77,190.7,84.32Z"/><path class="cls-1" d="M381.35,8.55h13.7Q387.22,40.8,379.65,72h-17.4C368.49,50.36,375.06,29.51,381.35,8.55Z"/><path class="cls-1" d="M591.27,167.58l8.22-4.91c7.79,6,10.73,20.62,5,30.21-1.92,3.22-5.07,5.11-8.6,6.21-10.31,3.2-18.81-1.54-21.62-10.57a38.44,38.44,0,0,1-1-17.38c.26-1.79.91-3.06,2.76-3.66,2.52-.82,5-1.79,8.17-2.94a72.78,72.78,0,0,0,.06,8.18,42.82,42.82,0,0,0,1.87,8.7c.63,1.85,2.27,3.48,4.56,2.76,2-.63,3-2.3,3.22-4.47A20.19,20.19,0,0,0,591.27,167.58Z"/><path class="cls-1" d="M645.92,200.55c1.71-18.15,3.39-35.89,5.09-53.91l10.75-5.35a6.18,6.18,0,0,1,.77,1.78q.91,25.83,1.77,51.67Z"/><path class="cls-1" d="M632.25,142.83l10.87-.52c-1.79,16.23-3.55,32.15-5.35,48.44l-17.63,1.82c1.52-8.75,4.4-16.59,6.25-24.67S630.22,151.52,632.25,142.83Z"/><path class="cls-1" d="M682.13,295.76c-6-.06-9.68-2.39-11.38-6.13-3.29-7.22,3.87-15.85,11.55-15.72,7.83.13,13.07,5.07,11.87,11.78-.9,5-3.77,8.38-8.9,9.51C684,295.49,682.63,295.67,682.13,295.76Z"/><path class="cls-1" d="M136.19,106.24v-5.9c-.62-.2-1.29-.44-2-.62-3.61-1-5.79-3.2-6-7s.9-7,4.27-8.85,6.81-2.37,10.24,0a10.06,10.06,0,0,1,4.57,7.42,26.19,26.19,0,0,1-1.37,12c-.85,2.34-2.14,3-4.29,3C139.94,106.22,138.29,106.24,136.19,106.24Z"/><path class="cls-1" d="M605.36,156.31c1-1.7,1.72-3,2.61-4.5a14.19,14.19,0,0,1-1.79-2.82c-1-2.77-1.36-5.52,1-8s5.21-3.61,8.54-2.56a7.25,7.25,0,0,1,5.28,6.62c.5,4.9-3.54,11.7-8.12,13.56a3.21,3.21,0,0,1-2.14.19C608.92,158.13,607.24,157.22,605.36,156.31Z"/></g></g></svg>